<svg xmlns="http://www.w3.org/2000/svg" xml:space="preserve" id="Calque_1" x="0" y="0" version="1.1" viewBox="0 0 394.81 402.43"><style>.st0{fill:#00f}</style><path d="M245.69 55.55c.6.65 1.32.84 2.16.56 1.27.58 2.27 1.51 3.24 2.48l.01.01c.88.95 1.88 1.79 2.57 2.92l-.08-.12c.94.79 1.68 1.74 2.23 2.83.85 2.91.47 5.88.61 9.38.33-3.46-.21-6.49.77-9.37.59-1.1 1.42-1.96 2.51-2.56l-.19.19c.47-1.66 1.64-2.56 3.26-2.94.78.34 1.37.14 1.78-.6 2.62-1.52 5.3-1.28 8-.23.72.61 1.54.8 2.46.59 1.04.77 1.97 1.68 3.01 2.45l.09.09c.8 1.06 1.76 1.99 2.4 3.17-.3.87-.12 1.63.52 2.29 1.1 2.73 1.72 5.42-.57 7.91l.03-.06c-1.42 1.98-1.89 4-.23 6.1l-.17-.15c1.47.33 2.36 1.38 3.12 2.57l-.14-.13c1.18.74 2.17 1.65 2.71 2.98l-.13-.16c1.94.94 3.87 1.71 5.63-.34l.1-.04c1.71-1.42 4.12-1.13 5.89-2.4l4.01.15c1.38.17 2.31 1.25 3.52 1.74.55.76 1.29 1.03 2.2.82 1.31.63 2.38 1.52 3.05 2.84l-.17-.19c2.02 1.19 1.37 3.9 3.01 5.3.11.87.22 1.75.34 2.62.66.88.63 1.76.01 2.65-.24 1.37-.49 2.74-.73 4.11-.47 2.34-1.6 4.71.2 6.98l-.14-.12c1.27.64 2.23 1.59 2.83 2.89l-.16-.18c1.26.6 2.23 1.54 3.08 2.61.91-.21 1.82-.41 2.72-.62 1.18-.69 2.22-1.68 3.67-1.84l3.77-.15c1.82 1.2 4.31.85 5.91 2.56l-.06-.04c.99.8 1.85 1.75 2.82 2.58l.03.03c.99 1.05 1.99 2.1 2.33 3.57l.03 9.15c-.24 3.72-6.48 6.11-2.38 10.78 1.11 1.15 2.21 2.3 3.32 3.45.53 1.02 1.18 1.96 1.93 2.84l-.06-.13c2.53 4.41 3.34 8.83.1 13.29v-.01c-1.98 2.79-1.66 5.6-.12 8.44l-.13-.13c1.33.73 2.25 1.81 2.74 3.25-.27.88 0 1.53.81 1.96 1.64 2.17 3.34 1.23 5.04.08.91.23 1.75.07 2.52-.48 1.81-1.04 3.59-1.07 5.33.16.47.71 1.1.89 1.88.56 1.55.44 2.68 1.34 3.23 2.89l-.26-.28c3.03 4.3 2.67 8.64.17 13.01l.13-.16c-.59 1.28-1.49 2.22-2.84 2.7l.12-.1c-3.31 2.96-6.82 2.08-10.35.51l-.24-.1c-3.03-1.85-3.87 1.39-5.66 2.43l.09-.09c-.98 1.98-1.51 3.94.31 5.78v-.01c2 2.15 4.17.98 6.32.34 2.25-.07 4.5-.13 6.75-.2.94.71 1.94 1.31 3.01 1.8 1.13 1.16 2.25 2.33 3.38 3.49.57 1.23 1.59 2.26 1.72 3.69-.85 1.12-.8 2.23.03 3.34-.97 2-.49 4.71-2.94 5.98l.2-.21c-.83 2.3-3.62 1.56-4.9 3.16l-.22.07c-2.64 1.67-5.22 2.29-7.62-.41l.05.05c-1.95-.86-3.89-1.53-5.64.39l-.07.14c-2.09 3.47-2.26 6.92.09 10.35l.07.16c.82.94 1.68 1.04 2.61.15l-.05.05c.88-1.14 1.95-2.04 3.32-2.54 2.43-.07 4.85-.14 7.28-.22 1.41 1.65 4.56.93 5.1 3.76-.37.77-.16 1.31.65 1.6 1.46 2.65 1.38 5.32.07 7.99-.79.39-1.03 1-.7 1.83-.46 1.87-1.61 2.97-3.55 3.2l-.91-.23-.58.74c-2.7 1.52-5.34 2.02-7.83-.4l.06.05c-1.04-.68-2.01-1.46-2.89-2.35l-.12-.11c-.78-.96-1.54-.9-2.3.02l-.85.54.1 1c-.15 1.67-1.15 2.78-2.42 3.72-.78.97-1.64 1.88-2.59 2.7l-.07.06c-1.43 1.24-.43 2.68-.34 4.05l-.03.96.83.47c.82 1.16 1.8 2.23 1.95 3.74l.03 8.73c-1.02 1.93-.35 4.78-3.14 5.75l.15-.16c-.14 1.74-.98 2.71-2.82 2.59l.55.86-.6-.84c-.3 2.29-4.69 3.25-2.1 6.47l-.13-.1c1.27.65 2.24 1.59 2.81 2.91l-.19-.25c2.81 4.34 2.5 8.72.15 13.13l.09-.13c-.62 1.18-1.57 2.05-2.64 2.8-1.4 1.8-3.91 1.29-5.53 2.65-1.42-.06-2.84-.11-4.27-.17-1.87-1.05-4.68-.36-5.63-3.08l-.5.75.53-.73c-1.24-.28-2.4-.07-3.49.55l.03-.03c-.74.97-1.49 1.93-2.25 2.89l-.28.33c-.95.62-1.74 1.4-2.42 2.31l-.34.24c-.9.85-1.89 1.56-2.98 2.14l-.01-.01a5.808 5.808 0 0 1-2.54 2.34c-1.72.57-3.49.77-5.29.81-1.2.05-2.4-.01-3.6-.13-1.2-.11-2.38-.35-3.53-.63-4.07-1.14-5.69-.2-4.43 4.41 1.14 4.16 2.35 8.65-2.29 11.84l.19.15c-1.17 1.61-.35 4.49-3.2 5.03l.58.5-.47-.6c-1.78 4.57-6.74 3.92-9.99 6.09l-.09.03c-1.7 1.7-3.46 1.71-5.28.21l-.92-.67-1.11.25c-1.87-1.07-4.38-.68-5.87-2.59l.04.02c-1.01-.73-1.98-.73-2.92.13l-.11.09c-.83.95-1.77 1.77-2.83 2.44v-.02c-2.64 3.01-1 6.01.03 9.01.01 1.37.02 2.75.02 4.12-1.22 1.78-.77 4.36-2.73 5.79l.08-.1c-.66 1.18-1.56 2.13-2.8 2.7l.12-.08c-7.59 3.46-14.01 2.62-18.6-5.02l-.03-.07c-2.85-2.6-.35-6.61-2.28-9.45 2.22 4.92-.57 8.48-3.19 12.08l-.02.03c-.81.92-1.66 1.81-2.53 2.67l-.15.11c-.95 1.05-1.97 1.99-3.42 2.29l-1.07-.18-.83.7c-2.69 1.51-5.33 1.85-7.87-.3l-.09-.04c-1.42-1.45-4.17-.75-5.03-3.1l.17.17c-2.31-.74-1.53-3.65-3.32-4.75l.11-.26c-3.21-5.22.06-11.24-1.91-16.11.3 5.11 1.61 10.74-.87 16.2l-.62.6.22.84c-.17 1.78-1.1 2.97-2.79 3.56l.16-.17c-.91 2.24-3.65 1.53-4.99 3.08l-.18.07c-3.5 1.78-6.97 2.58-10.27-.44l.09.07c-1.16-.51-2.17-1.24-3.05-2.14l-.23-.17c-.79-.9-1.61-1.76-2.47-2.59l.18-.19c-2.91-3.48-5.48-7.05-2.99-12.25-2.73 3.03.44 7.2-2.59 9.78-.61.45-.75 1.02-.41 1.7-.35 1.62-1.21 2.77-2.88 3.19l.18-.17c-1.25 2.47-3.95 1.98-5.96 2.91-1.32.05-2.64.09-3.96.14-1.73-1.22-4.15-.84-5.71-2.46l-.15-.1c-.86-.84-1.73-1.66-2.62-2.47l-.12-.16c-1.01-1.05-2.01-2.11-2.24-3.64l.03-8.59c.55-2.28 1.62-4.57-.14-6.8l.02.03c-1.07-.68-2.01-1.49-2.83-2.45l-.1-.08c-.95-.83-1.93-.86-2.93-.11l.03-.02c-1.24 1.83-3.77 1.25-5.18 2.77l-.15.07c-4.41 3.47-8.71 3.89-12.87-.41l-.05-.02c-4.09-.96-6-4.46-8.49-7.29l-.16-.23c-.81-.96-1.69-.97-2.61-.16l-.04.03c-.79 1.04-1.62 2.02-2.94 2.42l.12-.09c-4.24 3.04-8.64 2.08-13.06.51l-.29-.13c-2.01-1.4-3.66-3.19-5.28-5.01l-.14-.3c-1.16-2.13-1.51-4.53-2.17-6.82l.02.16c.66-2.31.96-4.74 2.27-6.83l.04-.08c2.46-4.97-3.9-5.38-4.52-8.75-2.08-.41-3.2-3.87-6.05-1.94l-.24.1c-4.42 1.6-8.81 2.57-13.04-.51l.13.09c-1.38-.38-2.21-1.4-2.94-2.54l.06.07c-1.32-.85-2.28-1.94-2.53-3.55.43-.75.25-1.32-.53-1.69-1.59-2.69-1.66-5.37.06-8.04l.72-.6-.22-.91c.17-1.76 1.16-2.92 2.68-3.69l-.16.17c.78-1.13.7-2.41.61-3.69l-.13-.11c-1.72.1-2.52-.98-3.06-2.39l.11.11c-1.42-.51-2.44-1.38-2.58-3l.12.12c-6.8-5.73-5.99-11.88-.98-18.24.84-.28 1.08-.83.69-1.63.27-1.32 1.03-2.68-.27-3.9l-.02-.02c-1.04-.81-2.08-1.63-2.49-2.96l.07.09c-2.22-1.5-4.45-.86-6.69-.05l-1-.27-.78.68c-1.8 1.48-3.54 1.54-5.19-.25l-.04-.01c-1.49-1.39-4.17-.74-5.15-3.01l.17.17c-2.24-.88-1.51-3.7-3.23-4.92l-.03-.1c-1.73-2.69-1.83-5.37.07-8.03l-.01.03c1.63-1.38 1.03-4.33 3.54-5.1.88.25 1.51-.05 1.87-.9 1.17-.51 2.06-1.53 3.33-1.84 2.01.06 4.03.11 6.04.17 1.73.01 2.88 1.1 4.04 2.16l.08.03.85 1.02.89-.99c.96-.32 1.33-.98 1.12-1.97.65-1.94 2.04-3.92-.37-5.66l-.28-.32c-.7-1.04-1.47-1.04-2.3-.15l-.15.08c-1.67 1.57-4.05 1.33-5.93 2.35-1.14-.67-2.28-.99-3.45-.08-2.15-.8-4.88-.4-6.18-2.97l.19.19c-1.79-.37-2.65-1.57-2.93-3.29.38-.78.16-1.33-.65-1.64-1.52-3.58-1.64-7.15.08-10.7l.75-.49-.16-.88c.18-2.11 1.34-3.31 3.41-3.65.76.35 1.29.13 1.57-.66 3-1.54 5.79-3.82 9.63-2.62-2.1-1.7-5.21-.06-6.98-2.39l-.69-.72-.97.22c-1.62-.22-2.71-1.19-3.54-2.52l.08.07c-1.26-.76-2.17-1.81-2.64-3.22.32-.84.11-1.51-.62-2.03-1.32-2.68-1.38-5.34.05-8 .75-.45.95-1.07.6-1.87.42-1.54 1.34-2.65 2.8-3.31l-.22.2c1.14-2.12 3.87-1.46 5.31-3.06 2.42.07 4.84.13 7.26.2 1.26.4 2.21 1.32 3.32 1.99 2.14 1.72 2.5-.05 3-1.53.48-1.41 1.41-2.46 2.59-3.32l-.07.08c.75-1.01.8-2.04.05-3.07l.05.06c-1.5-1.59-2.26-3.57-2.95-5.6-.91-4.29-.84-8.5 1.05-12.56.52-1.96.05-4.31 2.15-5.67l-.2.23c.54-1.36 1.51-2.3 2.83-2.91l-.15.13c1.17-2 1.39-3.98-.08-5.95l.05.09c-2.35-5.31-2.58-10.6.14-15.87l-.16.23c.55-1.28 1.58-2.14 2.62-2.99l-.07.06c.9-1.15 1.95-2.1 3.37-2.54.8.33 1.45.15 1.96-.55 2.64-1.49 5.31-1.32 8.01-.17.86.16 1.73.32 2.59.47 1.9 1.74 3.86 1.32 5.85.19l-.12.15c.6-1.3 1.56-2.24 2.81-2.9l-.14.12c1.13-1.92 1.65-3.82-.2-5.64l-.04-.08c-1.91-4.47-2.1-8.93.1-13.37l-.03.06c.81-.79 1.47-1.7 1.97-2.72l3.4-3.19c1.09-.65 2.02-1.55 3.22-2.03l11.58.21c2.34.44 4.7 1.65 6.96-.24l-.12.12c.71-1.23 1.62-2.24 3.02-2.7l-.17.13c1.5-2.28.77-4.58.05-6.88l.03-8.47c.11-1.71 1.16-2.85 2.39-3.86l-.05.06c.85-1.01 1.73-1.99 2.89-2.67l-.15.11c1.73-1.88 4.26-1.77 6.42-2.56l.48-.04c2.1.79 4.42.92 6.41 2.05.32.79.88 1.02 1.66.69 1.99.36 3.13 1.53 3.35 3.57l-.2.84.63.59c2.79 2.42.28 6.35 2.29 8.98-2.43-4.82.85-8.09 3.15-11.6l-.12-.13c.94-.79 1.74-1.7 2.4-2.73l.22-.19c1.14-.6 2.02-1.54 3.02-2.32.95.23 1.79.01 2.51-.64 3.59-.99 7.15-1.34 10.67.27.43.74 1.04.95 1.83.62 1.57.38 2.7 1.31 3.33 2.8l-.12-.12c3.4 2.04 4.47-2.15 6.94-2.6.8.31 1.31.05 1.53-.77 1.1-.77 2.11-1.68 3.46-2.02 3.22-.07 6.45-.13 9.67-.2 1.57 1.48 4.19.92 5.52 2.86l-.17-.13c1.2.64 2.08 1.63 2.91 2.66l-.05-.06c.99.8 2 .82 3.03.07l-.09.1c.76-1.16 1.67-2.15 2.99-2.68l-.22.18c1.29-2.17 3.96-1.64 5.7-2.92 3.04.06 6.09.13 9.13.19 1.59.16 2.67 1.22 3.82 2.16l.14.07c.67 1 1.56 1.73 2.65 2.23l.32.34c1.59 2.29 3.5 1.89 5.51.65l-.19.19c.74-2.41 3.71-1.6 4.89-3.38.94-.16 1.87-.32 2.81-.49 2.71-.93 5.38-1.09 8.02.26z" class="st0"/><path d="m296.9 313.96 3.09.24c1.3 1.41 3.05 1.12 4.7 1.22 1.23.04 2.06.64 2.48 1.8l-.21-.22c1.77.6 2.74 1.83 2.87 3.7l-.19.85.71.51c1.72 2.66 1.63 5.34.07 8.03-.77.33-.96.87-.56 1.6-.22 1.7-1.17 2.85-2.72 3.53l.16-.17c-1.05 2.11-3.71 1.46-5.1 2.99l-.15.05c-1.66 1.62-3.41 1.58-5.21.24l-.92-.64-1.12.15c-1.36-.33-2.27-1.33-3.32-2.15l-.34-.24c-.69-.94-1.49-1.79-2.39-2.53l.07-.22c-2.02-5.99-3.36-11.89 2.44-16.74 1.88-.65 4.1-.37 5.64-2zM54.35 146.38c-.03 5.14-.06 10.27-.1 15.41-2.58.06-5.34-.74-7.44 1.57l-.2.1c-3.53 1.61-7.03 2.54-10.32-.53l.14.12c-1.4-.43-2.31-1.38-2.87-2.7l.15.19c-2.57-4.36-2.94-8.69.17-12.97l-.28.3c.52-1.61 1.68-2.52 3.28-2.91 3.2-.08 6.39-.16 9.59-.25 1.02.78 1.97 1.65 3.02 2.39l.11.12c.77.97 1.53 1.01 2.29-.01l.11-.16c.59-.9 1.37-1.12 2.35-.67zM116.75 356.73l.03-4.73c1.46-1.55.7-4.47 3.3-5.31l-.22.21c4.15-3.43 8.48-2.39 12.85-.54l-.07-.05c1.07.8 1.98 1.74 2.71 2.85l-.1-.15c2.37 3.5 2.14 7.03.14 10.58l-.01.01c-.82.92-1.66 1.81-2.52 2.69l-.17.12c-1.88 1.46-4.26 1.53-6.39 2.3l-.4-.04c-2.14-.83-4.83-.47-6.23-2.89l.23.22c-2.35-.97-1.65-3.77-3.15-5.27zM264.8 346.35c.89.17 1.69-.02 2.42-.56 1.84-1 3.64-1.1 5.39.21.39.72.97.92 1.72.6 1.92.42 3.01 1.61 3.26 3.56l-.18.89.7.58c1.38 1.77 1.37 3.55.06 5.34-.75.39-.93.95-.56 1.71-.31 1.66-1.2 2.81-2.85 3.31l.2-.19c-3.27 3.08-6.77 2.18-10.3.58l-.17-.1c-.84-.85-1.71-1.67-2.61-2.45l-.12-.17c-1.72-3.59-1.94-7.16.15-10.7l-.02.03c.88-.97 1.83-1.88 2.91-2.64zM36.75 260.51c.8.27 1.45.06 1.94-.63 1.73-1.12 3.5-1.08 5.3-.18l2.6.57c.93.88 1.87 1.74 2.86 2.55l.04.05c2.08 13.93.14 15.84-13.26 13.02l.18.16c-1.48-.57-2.36-1.68-2.8-3.17.31-.8.12-1.45-.59-1.94-1.2-1.79-1.21-3.56.05-5.33.73-.42.92-1.01.57-1.77.37-1.72 1.44-2.8 3.11-3.33zM78.7 94.34l.03 6.59c-.48 1.34-1.39 2.36-2.47 3.25l-.06.05c-1.01 1.23-2.15 2.25-3.85 2.34-1.17.03-2.35.07-3.52.1-1.73-1.21-4.56-.49-5.48-3.13l.26.27c-3.56-3.06-1.95-6.69-1.12-10.24 1.04-1.06 2.08-2.12 3.11-3.19 1.18-.73 2.24-1.73 3.72-1.86l.63-.06c2.06.93 4.59.72 6.25 2.6l-.14-.12c1.27.85 2.21 1.93 2.64 3.4zM358.63 147.1c1.09 1 2.19 2 3.28 3 .48 3.52 2.28 7.2-1.32 10.19l.27-.28c-3.18 3.45-6.66 2.35-10.17.64l-.02-.02c-1.03-.8-2-1.66-2.62-2.84l.06.08c-1.87-1.55-1.9-3.3-.59-5.21.59-.62.76-1.34.53-2.16.66-1.3 1.65-2.29 2.88-3.04.88.15 1.66-.05 2.36-.6 1.85-.98 3.63-1.03 5.34.24zM96.12 61.64c1.32-.06 2.63-.13 3.95-.19 1.15.57 2 1.62 3.26 2.02l.47.35c.45 1.11 1.17 2 2.15 2.69l.04.11c1.35 1.77 1.44 3.57.09 5.39-.73.27-.92.76-.57 1.45-.46 2.82-3.55 2.25-4.96 3.84l-.15.06c-.78.85-1.63.92-2.55.22l-.98-.58-1.12.11c-1.34-.47-2.34-1.38-3.22-2.46l-.01-.01c-1.98-3.56-2.28-7.09.17-10.57l-.14.15c.87-1.32 1.97-2.3 3.57-2.58zM330.81 103.93l-1.03-.04-.76.69c-1.84 1.2-3.58 1.25-5.19-.41l-.02-.01c-.97-.79-1.89-1.65-2.75-2.56l-.03-.04c-1.81-2.68-1.99-5.33.14-7.94l-.08.1a9.408 9.408 0 0 1 3.07-2.68c3.24-.42 6.01.67 8.51 2.64.39 1.08.93 2.07 1.65 2.97-.42.66-.41 1.32.02 1.97-1.49 1.56-.81 4.56-3.53 5.31zM191.68 37.8l.03 4.06c-.48 1.29-1.45 2.23-2.31 3.25l-.21.16c-3.58 1.36-7.15 2.55-10.43-.69l.26.25c-2.96-2.22-1.79-4.99-1.02-7.7 1.08-1.11 2.17-2.22 3.25-3.33 2.74-.81 5.45-1.41 7.96.64l-.03-.02c1.07.96 2.02 2 2.5 3.38zM216.08 34c1.02 1.04 2.05 2.08 3.07 3.12 1.13 1.75 1.12 3.51.07 5.29-.74.42-.98 1.03-.73 1.84-3.15 3.72-6.74 2.38-10.33.87l-.07-.06c-1.1-.96-2.06-2.02-2.38-3.51l.03-3.43c.26-1.62 1.26-2.73 2.55-3.63l-.13.11c2.48-2.29 5.18-1.66 7.92-.6z" class="st0"/><path d="M293.83 316.44c-7.18 3.74-6.45 9.91-5 16.29-1.11-.16-2.22-.32-3.33-.47 1.73-4.77 1.41-9.16-1.73-13.43-1.39-1.89-3.52-4.23-1.26-6.94 2.8-3.37 5.39-.88 7.99.44 1.16.59 2.3 1.2 3.45 1.8.73.55.95 1.07.68 1.58-.28.48-.54.73-.8.73zM224.12 362.28c1.78-5.04 2.9-10.08-.3-15-1.12-1.72-1.15-3.14.78-4.24 1.6-.91 3.16-1.15 4.87-.07 1.56.98 3.23 2.11 2.05 4.01-2.49 4.02-2.06 8.33-1.93 12.67-1.82.88-3.65 1.75-5.47 2.63zM36.22 275.89c13.28.81 14.41-.31 13.26-13.02 1.67-.87 3.34-1.75 5.02-2.62-3.28 6.28-1.09 12.26.98 18.25-3.43-.98-6.75-.23-10.18.3-3.28.51-7.08 1.2-9.08-2.91zM167.77 359.75c-.09-4.31.69-8.73-1.88-12.7-1.29-1.99.09-3.09 1.55-4.19 2.04-1.55 3.87-1.34 5.88.12 1.84 1.34 1.64 2.63.52 4.28-3.28 4.86-2.01 9.91-.48 14.95-1.87-.81-3.73-1.64-5.59-2.46zM76.68 327.4c-.58.61-.77 1.33-.6 2.16-.65 1.47-1.68 2.5-3.28 2.9-1.46.07-2.92.13-4.37.2a36.06 36.06 0 0 0-2.92-2.16l-.29-.34c-1.28-2.74-1.46-5.46.16-8.15l.11-.12c1.08-.81 2.05-1.75 3.3-2.31l3.58.18c1.88.2 3.03 1.29 3.68 3-.22.79-.02 1.46.6 2.01.62.87.6 1.75.03 2.63zM143.63 61.35c-1.4 5.11-3.25 10.27.37 15.22 1.7 2.32.93 4.25-1.05 5.56-.82.54-2.76.31-3.62-.33-1.53-1.14-4.68-1.92-2.93-4.85 2.48-4.14 1.87-8.56 1.78-12.98 1.82-.88 3.63-1.75 5.45-2.62zM38.64 195.79c3.49-.34 7.01-.32 10.14-2.42 1.91-1.28 3.12.36 4.32 1.68 1.84 2.02 1.4 3.84-.09 5.83-1.22 1.63-2.32 2.17-4.25.95-4.03-2.56-8.44-1.69-12.79-1.04.91-1.66 1.79-3.33 2.67-5zM351.21 263.13c.83.2 1.53-.01 2.11-.64 1.87-1.04 3.66-1.04 5.34.41l.03.01c.84.95 1.77 1.82 2.63 2.75l-.02-.04c1.57 1.75 1.55 3.53.09 5.34l-.04.1c-2.88 3.79-6.16 5.71-10.57 2.24l.19.2c-2.35-3.52-2.77-6.99.24-10.37zM294.93 64.25c2.37-.08 4.75-.15 7.12-.23 1 .89 1.95 1.82 2.74 2.9.01 1.66.01 3.32.02 4.98-.82.93-1.65 1.85-2.48 2.77l-.21.13c-2.69 1.46-5.34 2.26-7.71-.58l.23.25c-2.55-3.48-3.05-6.91.29-10.22zM47.18 128.42c-1.06 1-2.12 2.01-3.19 3.01-1.86 1.23-3.61 1.3-5.18-.48l.07.08c-1.23-.79-2.14-1.85-2.65-3.23l.03-3.88c.45-1.56 1.49-2.61 2.93-3.31l4.96-.21c.76.94 1.65 1.72 2.69 2.32l.17.3c1.1 1.78 1.19 3.57.17 5.4zM197.29 359.72c.08-4.32.78-8.7-2-12.62-1.2-1.69-.41-3.11 1.13-4.38 1.6-1.32 2.88-1.36 4.49-.01 1.5 1.25 2.51 2.67 1.29 4.35-2.83 3.9-2.28 8.24-2.12 12.57l-2.79.09zM229.62 359.72c4.99 6.16 11.33 7.31 18.6 5.02-11.1 5.31-13.91 4.56-18.6-5.02zM154.85 34.61c.68.28 1.34.23 1.97-.14a7.33 7.33 0 0 0 2.98 1.84l.56.67c.23 2.78 2.15 5.93-1.69 7.83-1.38.07-2.75.13-4.13.2-1.09-.72-1.97-1.68-2.9-2.59.01-1.71.01-3.42.02-5.14.9-1.1 1.87-2.09 3.19-2.67zM324.33 322.27c1.58-.07 3.15-.14 4.73-.2.88.97 1.85 1.87 2.61 2.95-.19.75-.19 1.5.02 2.24-.82.92-1.6 1.87-2.33 2.86l-.33.18c-1.87 1.27-3.62 1.46-5.15-.53l.17.19c-2.29-2.65-2.62-5.22.28-7.69zM38.19 295.23c1.44-1.74 3.32-2.55 5.55-2.64 1.23.84 2.25 1.86 2.74 3.31-.41.43-.4.86.01 1.29-.51 1.32-1.42 2.34-2.46 3.27l-.09.06c-1.83 1.5-3.53 1.77-4.94-.54l.22.22c-2.25-1.26-1.93-3.05-1.03-4.97zM347.55 152.65c.2 1.74.39 3.47.59 5.21-1.9.94-3.8 1.88-5.69 2.82-.03-4.43-.07-8.86-.1-13.29l5.2 5.26zM57.85 117.88c-1.58 5.28-1.61 10.57-.14 15.87-4.38-5.33-4.52-10.62.14-15.87zM337.16 141.23c-5.45-1.5-6.47-3.62-1.15-7.01 1.41-.9 2.36-2.5 3.53-3.78.82 3.96-2.26 7.05-2.38 10.79zM242.94 36.48c.82 1.66 1.64 3.31 2.46 4.97-2.08 3.79-4.92 2.32-7.72 1.11l-.11-.12c-1.42-1.81-1.44-3.59.14-5.33l-.03.03c1.58-1.53 3.37-1.46 5.26-.66zM102.91 352.48l.03 3.8c-2.23 3.26-5.03 2.03-7.81 1l-.23-.26c-1.24-1.84-1.26-3.65.15-5.41l.05-.05c2.81-1.33 5.59-2.56 7.81.92zM363.65 190.13c1.36-4.35 1.38-8.69-.17-13.01 4.9 4.27 4.71 8.61.17 13.01zM84.45 90.89c-.03 4.46-.07 8.91-.1 13.37-3.93-4.49-4.01-8.95.1-13.37zM111.23 335.78l8.49 7.29c-5.45.62-7.97-2.17-8.49-7.29zM92.55 338.26l13.06-.51c-4.17 4.81-8.55 4.21-13.06.51zM272.6 343.43l9.99-6.09c-.71 6.33-5.33 6.24-9.99 6.09zM82.46 310.5c1.69 2.83 11.08 1.67 4.53 8.76-1.01-3.18-4.86-4.89-4.53-8.76zM63.15 308.15l13.04.51c-4.5 3.73-8.88 4.35-13.04-.51zM336.87 303.1c1.04-4.39 1.09-8.77-.15-13.13 4.68 4.32 4.51 8.7.15 13.13zM334.23 287.4c-1.91-.64-5.31-.19-4.59-3.24.68-2.85 4.27-2.45 6.69-3.23-.7 2.16-1.4 4.32-2.1 6.47z" class="st0"/><path d="M350.77 273.3c3.91 1.09 7.53.78 10.58-2.24-3.31 6.55-4.28 6.75-10.58 2.24zM132.71 346.37c-4.35-1.38-8.63-1.08-12.85.54-.03-1.27-.06-2.55-.08-3.82 4.27.93 8.55 1.4 12.87.41l.06 2.87zM33.88 147.57c-1.57 4.3-1.52 8.63-.17 12.97-4.6-4.38-4.8-8.71.17-12.97zM46.82 163.36c1.81-3.69 4.15-4.87 7.44-1.57l.75 4.19c-2.73-.87-5.46-1.75-8.19-2.62zM261.9 348.96c-1.07 3.55-1.11 7.12-.14 10.7-3.76-3.62-3.8-7.18.14-10.7zM350.71 160.64c3.44.52 6.83.42 10.17-.64-3.08 5.19-6.52 4.56-10.17.64z" class="st0"/><path d="M360.6 160.28c1.35-3.28 2.18-6.62 1.32-10.19 2.82 3.82 3.95 7.42-1.32 10.19zM36.29 162.94c3.44.17 6.88.35 10.33.53-3.65 3.69-7.13 4.2-10.33-.53zM297.09 351.72c3.03-.16 4.15 1.8 4.77 4.3-1.2 2.83-2.98 2.46-4.98.9l.01.01c-1.63-1.8-1.67-3.54.2-5.21zM208.16 45.12c3.55.97 7 .7 10.33-.88-3.02 5.31-6.54 4.65-10.33.88zM92.69 64.06c-1.44 3.5-1.49 7.03-.17 10.57-4.01-3.59-4.07-7.11.17-10.57zM135.38 359.61c-.05-3.53-.09-7.05-.14-10.58 4.18 3.47 4.12 7 .14 10.58zM350.7 193.07l10.35-.51c-3.22 4.64-6.71 4.17-10.35.51zM294.93 64.25c-1.8 3.36-1.78 6.77-.3 10.22-4.63-3.54-4.76-6.96.3-10.22zM30.42 206.47c-.03 3.57-.05 7.13-.08 10.7-3.52-3.59-3.54-7.16.08-10.7zM345.33 233.09c-3.79-3.42-5.17-6.86-.09-10.35l.09 10.35zM253.54 352.31c-1.21-3-6.9-5.99-.03-9.01l.03 9.01zM351.21 263.13c-1.84 3.41-1.88 6.87-.25 10.36-4.41-3.56-4.56-7.02.25-10.36zM353.56 123.21c3.03-.16 4.15 1.8 4.77 4.3-1.2 2.83-2.98 2.46-4.98.9l.01.01c-1.63-1.81-1.67-3.55.2-5.21zM178.76 44.59c3.4 1.35 6.86 1.9 10.43.68-3.72 3.58-7.25 4.16-10.43-.68zM62.49 93.59c-.48 3.51.01 6.9 1.12 10.24-5.28-2.88-4.2-6.45-1.12-10.24zM264.65 362.38c3.43-.19 6.87-.38 10.3-.58-3.17 4.87-6.65 4.29-10.3.58zM162.33 55.62l-10.67-.27c3.63-3.06 7.19-3.19 10.67.27zM178.84 367.26c3.42.15 6.85.29 10.27.44-3.6 3.81-7.05 4.3-10.27-.44zM208.23 367.61l7.87.3c-2.74 3.22-5.38 3.46-7.87-.3zM189.22 34.45c-2.65-.21-5.31-.43-7.96-.64 2.9-2.84 5.57-2.86 7.96.64z" class="st0"/><path d="M294.4 74.22c2.57.19 5.14.38 7.71.58-2.83 3.28-5.43 3.59-7.71-.58zM216.08 34l-7.93.6c2.38-3.73 5.05-3.61 7.93-.6zM95.13 357.28c2.79 1.13 5.35.45 7.81-1-2.08 4.39-4.77 4.09-7.81 1zM102.91 352.48c-2.48-1.34-5.05-1.91-7.8-.92 3.03-3.3 5.71-3.65 7.8.92zM158.67 44.8c1.46-2.42 2.52-4.92 1.69-7.83 2.45 3.26 3.08 6.13-1.69 7.83zM178.01 37.14l1.02 7.7c-4.22-2.05-3.81-4.72-1.02-7.7zM237.68 42.56c2.77.97 5.31.38 7.72-1.11-1.95 4.7-4.62 4.42-7.72 1.11zM86.98 333.13l5.28 5.01c-3.35 0-5.07-1.71-5.28-5.01zM324.33 322.27c-1.25 2.52-1.15 5.09-.27 7.68-3.93-2.69-3.97-5.26.27-7.68zM310.42 330.1c-.02-2.68-.05-5.36-.07-8.03 3.34 2.65 3.35 5.32.07 8.03zM65.39 322.01c-.89 2.7-.93 5.42-.16 8.15-3.12-2.78-3.12-5.5.16-8.15zM280.27 80.64c-6.83-2.29-1.7-4.14.23-6.1-.07 2.03-.15 4.06-.23 6.1zM245.69 55.55c-2.66-.05-5.33-.11-7.99-.16 2.71-2.87 5.38-2.88 7.99.16zM76.42 308.56c3.56-4.13 5-1.67 6.06 1.95-2.01-.65-4.04-1.3-6.06-1.95zM355.95 295.18c1.55.97 2.79 2.39 1.19 3.89-1.62 1.53-2.93.19-3.76-1.45.93-.74 1.78-1.56 2.57-2.44zM57.39 292.49l-.06 8.04c-3.29-2.7-3.29-5.38.06-8.04zM174.31 56.32c-2.09 1.47-2.12 8.42-6.94 2.6 2.31-.86 4.62-1.73 6.94-2.6zM272.56 58.1c-2.67.08-5.33.16-8 .23 2.58-3.15 5.25-3.13 8-.23zM350.8 249.18c2.61.13 5.22.27 7.83.4-2.78 3.21-5.42 3.51-7.83-.4zM321.17 93.61c-.05 2.65-.09 5.3-.14 7.94-3.52-2.71-3.54-5.36.14-7.94zM364.38 244.05c-.02-2.66-.05-5.33-.07-7.99 3.15 2.63 3.16 5.3.07 7.99zM30.63 236.04c-.02 2.68-.05 5.36-.07 8.03-3.44-2.7-3.43-5.38.07-8.03zM350.9 222.15c2.54.14 5.08.27 7.62.41-2.73 3.41-5.29 3.68-7.62-.41zM230.18 59.07c-2.68 6.91-3.93 1.71-5.51-.65 1.83.21 3.67.43 5.51.65zM344.8 195.41c.59-3.83 1.48-6.97 5.66-2.43-1.89.8-3.77 1.61-5.66 2.43zM30.31 179.6c-.02 2.67-.03 5.33-.05 8-3.09-2.69-3.09-5.36.05-8zM342.33 169.11c-5.57-2.89-2.78-5.66.12-8.44-.05 2.81-.09 5.62-.12 8.44z" class="st0"/><path d="m280.48 74.6.57-7.91c2.99 2.87 3.19 5.53-.57 7.91zM73.58 111.94c-2.67.06-5.34.11-8.01.17 2.61-3.15 5.28-3.13 8.01-.17zM323.83 104.16c1.73.14 3.46.28 5.19.41-1.94 2.53-3.67 2.48-5.19-.41zM312.72 109.99c-4.92-2.19-2.75-4.58-.2-6.98.07 2.33.13 4.66.2 6.98zM203.11 364.47c2.06.42 3.95 1.1 5.03 3.1-2.36.08-4.36-.43-5.03-3.1zM189.28 367.63c1.13-1.88 2.92-2.7 4.99-3.08-.71 2.57-2.67 3.12-4.99 3.08zM158.69 367.38c1.38-2.22 3.73-2.43 5.96-2.91-.99 3.02-3.38 3.15-5.96 2.91zM82.03 112.6c-2.11 4.61-3.97 1.82-5.85-.19 1.95.06 3.9.13 5.85.19zM149.03 365.06c2.21.12 4.23.65 5.71 2.46-2.35.21-4.46-.14-5.71-2.46zM126.3 364.73c2.13-.77 4.26-1.54 6.39-2.3-1.5 2.53-3.89 2.57-6.39 2.3zM334.41 115.15c-2.26-.18-4.35-.76-5.91-2.56 2.42-.2 4.64.09 5.91 2.56zM119.67 361.8c2.25.59 4.66.84 6.23 2.89-2.64.24-5.14.17-6.23-2.89z" class="st0"/><path d="M199.96 359.89c1.74 1.14 2.96 2.65 3.32 4.75-2.59-.54-3.19-2.48-3.32-4.75zM296.88 356.93l4.98-.9c-1.08 3.49-2.72 3.91-4.98.9zM250.83 362.22c.31-2.22 1.07-4.22 2.73-5.8.18 2.46-.11 4.68-2.73 5.8zM116.75 356.73c1.05 1.76 2.09 3.52 3.14 5.29-2.79-.72-3.17-2.88-3.14-5.29zM84.38 104.34c1.85 1.82 4.68 3.6.2 5.64-.06-1.88-.13-3.76-.2-5.64z" class="st0"/><path d="M297.09 351.72c-.07 1.74-.13 3.47-.2 5.21-2.92-1.85-2.81-3.59.2-5.21zM47.18 128.42c-.06-1.8-.11-3.59-.17-5.39 2.39 1.73 2.62 3.52.17 5.39zM353.56 123.21c-.07 1.74-.13 3.47-.2 5.21-2.92-1.86-2.81-3.59.2-5.21zM106.07 72.01l-.09-5.39c2.61 1.76 2.72 3.55.09 5.39zM278.17 356.99l-.06-5.34c2.63 1.75 2.66 3.53.06 5.34z" class="st0"/><path d="m353.35 128.41 4.98-.9c-1.08 3.5-2.72 3.92-4.98.9zM38.8 130.96l5.18.48c-1.97 2.56-3.7 2.47-5.18-.48zM70.79 66.74c2.93 1.66 2.89 3.43.21 5.32-1.56-1.71-1.59-3.49-.21-5.32zM57.66 133.66c2.73 1.95 5.15 3.9.08 5.95-.03-1.99-.06-3.97-.08-5.95z" class="st0"/><path d="m70.79 66.74.21 5.32c-3.1-1.65-2.93-3.43-.21-5.32zM95.06 351.61l-.15 5.41c-2.61-1.88-2.52-3.68.15-5.41zM242.94 36.48l-5.26.66c1.44-2.66 3.18-3 5.26-.66zM54.35 146.38c-.79.22-1.58.44-2.36.67.17-2.24.81-4.17 3.26-4.9l-.9 4.23zM127.48 42.46c-3.18-1.65-2.86-3.44-.23-5.34 1.7 1.71 1.64 3.5.23 5.34z" class="st0"/><path d="M127.48 42.46c-.07-1.78-.15-3.56-.23-5.34 2.91 1.66 2.94 3.44.23 5.34zM111.55 82.98c-2.17 4.32-4.53 3.32-6.96.24l6.96-.24zM358.63 147.1c-1.77-.08-3.54-.17-5.32-.25 1.9-2.38 3.67-2.27 5.32.25zM120.08 346.69l-3.3 5.31c-.04-2.47.35-4.68 3.3-5.31zM272.61 346l-5.39-.21c0-.71 0-1.42.01-2.13l5.28-.21c.07.85.11 1.7.1 2.55zM143.79 343.29c5.74 2.15 2.1 4.49.14 6.8-.05-2.26-.1-4.53-.14-6.8zM219.23 42.41c-.02-1.76-.05-3.53-.07-5.29 2.45 1.73 2.49 3.49.07 5.29zM259.33 340.65c2.29.11 4.52.36 5.87 2.59-2.45.26-4.68.01-5.87-2.59zM259.7 61.68c.07.93-.26 1.67-1.01 2.23-1.43 1.57-2.85 1.55-4.27-.02-.28-.83-.56-1.66-.85-2.49 2.05.09 4.09.19 6.13.28zM237.71 37.11c-.05 1.78-.09 3.55-.14 5.33-2.73-1.85-2.66-3.62.14-5.33zM132.8 343.43c1.16-1.98 3-2.69 5.18-2.77-.97 2.34-2.91 2.86-5.18 2.77zM296.84 338.35l5.21-.24c-1.61 2.9-3.35 2.82-5.21.24zM297.29 82.97c-1.63 1.62-3.58 2.45-5.89 2.4 1.36-2.28 3.52-2.58 5.89-2.4zM302.2 338.05c1.2-1.85 3.05-2.59 5.1-2.99-.82 2.51-2.78 3.06-5.1 2.99zM282.48 337.44c.54-2.01.99-4.08 3.2-5.03.19 2.47-.05 4.68-3.2 5.03zM323.9 329.76c1.72.18 3.43.35 5.15.53-2.01 2.65-3.74 2.57-5.15-.53zM84.67 326.01c1.53 2.02 2.09 4.35 2.17 6.82-2.45-1.72-2.39-4.25-2.17-6.82zM194.49 56.19c-2.2-.26-4.12-1.06-5.52-2.86 2.38-.08 4.51.32 5.52 2.86zM291.3 85.41c-1.78 1.76-3.42 5.81-5.63.34 1.87-.11 3.75-.22 5.63-.34z" class="st0"/><path d="M86.95 319.33c-.15 2.47-.64 4.84-2.27 6.83-.23-2.6-.25-5.14 2.27-6.83zM38.8 171.56c-1.44 1.59-3.15 2.71-5.31 3.06.9-2.53 2.95-3.07 5.31-3.06zM208.6 53.42c-1.34 2.07-3.5 2.54-5.7 2.92 1-2.73 3.23-3.06 5.7-2.92zM358.64 173.95c-1.78-.05-3.55-.11-5.33-.16 1.85-2.41 3.62-2.35 5.33.16zM350.79 174.27c-1.71 1.78-3.43 4.54-5.04-.08 1.68.02 3.36.05 5.04.08zM76.21 91.09c-2.08-.87-4.17-1.73-6.25-2.6 2.55-.27 4.92-.09 6.25 2.6zM63.35 103.56c2.08.59 4.17 1.18 5.48 3.13-2.53.17-4.79-.11-5.48-3.13zM125.86 56.27c-1.64 2.1-4.07 2.23-6.42 2.56 1.39-2.72 3.82-2.84 6.42-2.56zM132.74 58.28c-2.39.11-4.52-.59-6.41-2.05 2.45-.3 4.79-.25 6.41 2.05zM328.78 308.42c1.42-1.78 3.37-2.44 5.53-2.65-1.13 2.38-3.19 2.81-5.53 2.65zM318.88 305.17c2.17.48 4.36.94 5.63 3.08-2.55.21-4.9.05-5.63-3.08zM312.91 93.63c-1.67-1.39-2.7-3.14-3.01-5.3 2.46.93 3 2.96 3.01 5.3zM39 299.98l4.95.54c-1.98 2.82-3.65 2.83-4.95-.54zM345.2 201.1c-2.46-1.8-3.9-3.65-.31-5.78.1 1.92.21 3.85.31 5.78z" class="st0"/><path d="M38.19 295.23c.34 1.66.68 3.31 1.03 4.97-3.27-1.05-3.41-2.75-1.03-4.97zM351.51 201.42c-2.22 1.93-4.53 5.73-6.32-.34 2.11.12 4.22.23 6.32.34zM114.33 73.66c1.91 2.31 5.84 4.63-.05 6.88.02-2.29.03-4.58.05-6.88zM339.04 278.47c.53-2.2 1.07-4.39 3.14-5.75.18 2.6.05 5.01-3.14 5.75zM361.39 270.96l-.09-5.34c2.78 1.73 2.84 3.51.09 5.34zM363.44 219.53c.52-2.22 1.08-4.42 2.94-5.98.23 2.59.08 4.98-2.94 5.98zM33.05 265.62c-.02 1.78-.03 3.55-.05 5.33-2.52-1.8-2.49-3.57.05-5.33zM234.88 55.88c-1.27 1.64-2.77 2.95-4.89 3.38.57-2.66 2.56-3.27 4.89-3.38zM345.31 222.59c1.53-5.18 3.57-3.06 5.64-.39l-5.64.39z" class="st0"/><path d="M358.74 222.48c1.2-1.72 2.84-2.77 4.9-3.16-.64 2.59-2.58 3.17-4.9 3.16zM33.73 221.91c2.29.51 4.71.74 6.18 2.97-2.64.22-5.17.21-6.18-2.97zM43.36 224.96c1.54-1.89 3.66-2.3 5.93-2.36-1.32 2.45-3.53 2.63-5.93 2.36zM52.01 223c2.87 1.71 3.9 3.53.37 5.66-.12-1.89-.25-3.77-.37-5.66zM358.66 262.89c-1.78-.14-3.56-.27-5.34-.41 1.97-2.44 3.75-2.24 5.34.41zM330.81 103.93l3.52-5.32c.01 2.56-.53 4.75-3.52 5.32zM100.54 77.3c1.65-1.28 3.31-2.56 4.96-3.84-.34 2.98-2.36 3.79-4.96 3.84zM43.99 259.7l-5.3.18c1.69-2.42 3.45-2.49 5.3-.18zM34.16 230.97l-3.54 5.1c.08-2.46.7-4.55 3.54-5.1zM38.84 251.95c1.73.08 3.46.17 5.19.25-1.87 2.67-3.61 2.79-5.19-.25zM45.8 251.79c2.24-1.95 4.5-5.91 6.69.05-2.23-.02-4.46-.04-6.69-.05zM33.64 248.93c2.06.42 4.03 1 5.15 3.01-2.37.12-4.39-.37-5.15-3.01zM363.65 234.46c-1.7-1.25-3.4-2.51-5.1-3.76 2.56.09 4.67.78 5.1 3.76z" class="st0"/><path d="M30.58 244.18c1.59 1.31 2.88 2.81 3.23 4.92-2.58-.66-3.14-2.63-3.23-4.92zM313.25 98.9c0-.88 0-1.77-.01-2.65.32.63.72 1.23.92 1.9.05.14-.59.49-.91.75zM334.32 96.64l-1.65-2.97 1.65 2.97zM348.01 233.4c-.38.95-.32 2.49-1.91 2.04-.4-.11-.47-1.42-.69-2.18.86.05 1.73.1 2.6.14zM345.55 246.79c.21-.71.3-1.96.64-2.02 1.51-.31 1.32 1.13 1.66 2l-1.15.02h-1.15zM347.97 246.87c1.46.17 2.5.85 2.89 2.35-1.42-.22-2.38-1-2.89-2.35zM360.12 249.07c.62-1.69 1.87-2.68 3.55-3.2-.47 1.87-1.68 2.9-3.55 3.2zM137.75 62.54c-1.7-.64-2.78-1.86-3.35-3.57 1.92.44 3.02 1.64 3.35 3.57z" class="st0"/><path d="M351.27 230.91c-.56 1.56-1.75 2.29-3.32 2.54.65-1.45 1.76-2.29 3.32-2.54zM342.39 252.03c.14-1.67.76-3.03 2.42-3.72-.11 1.7-.88 2.96-2.42 3.72zM92.53 74.64c1.47.3 2.68.95 3.22 2.46-1.53-.21-2.6-1.04-3.22-2.46zM51.26 230.63c-.62 2.22-1.17.81-1.74-.03.58-.01 1.16 0 1.74.03zM52.41 251.75c1.56.37 2.32 1.42 2.49 2.96-1.4-.51-2.23-1.49-2.49-2.96zM339.8 254.73c.27-1.47 1.12-2.38 2.59-2.7-.87.9-1.73 1.8-2.59 2.7zM54.92 254.73c2.94 1.1 2.44 2.44.27 3.9l-.27-3.9zM339.39 258.84c-2.2-1.54-2.98-2.97.34-4.05-.11 1.35-.23 2.7-.34 4.05zM49.44 230.56c-1.78.09-3.23-.45-4.04-2.16 1.72.02 3.08.72 4.04 2.16zM36.75 260.51c-.5 1.62-1.49 2.78-3.13 3.33.35-1.76 1.38-2.88 3.13-3.33zM119.59 58.73c-.45 1.45-1.39 2.35-2.89 2.67.96-.89 1.93-1.78 2.89-2.67zM49.45 262.82c-.95-.85-1.9-1.7-2.86-2.55.95.85 1.9 1.7 2.86 2.55zM39.36 228.23c-.66 1.42-1.81 1.97-3.33 1.84 1.11-.61 2.22-1.22 3.33-1.84zM342.14 264c-1.54-.78-2.02-2.11-1.95-3.74 1.32.9 1.94 2.16 1.95 3.74zM145.91 58.49c-.19 1.44-1.04 2.31-2.4 2.73l2.4-2.73zM251.09 58.59c-1.57-.18-2.69-.95-3.24-2.48 1.08.83 2.16 1.66 3.24 2.48zM49.44 222.53c.44-.59.89-1.17 1.33-1.76l.96 1.92c-.76-.05-1.53-.1-2.29-.16zM361.31 265.66c-.88-.92-1.75-1.84-2.63-2.75.88.91 1.76 1.83 2.63 2.75zM30.99 218.81c1.61.53 2.6 1.62 2.93 3.29-1.76-.4-2.69-1.54-2.93-3.29zM366.36 210.21c-1.42-.84-1.79-2.16-1.72-3.69.57 1.23 1.15 2.46 1.72 3.69zM224.35 58.07c-.88-.75-1.77-1.49-2.65-2.24.88.75 1.76 1.5 2.65 2.24zM33.6 272.89c1.56.5 2.48 1.57 2.8 3.17-1.61-.47-2.53-1.54-2.8-3.17zM200.22 58.73c-.37.64-.62 1.71-1.13 1.85-1.44.39-1.63-.9-1.9-1.92 1.01.03 2.02.05 3.03.07zM55.36 278.38c1.6.36 2.34 1.46 2.58 3-1.57-.39-2.44-1.38-2.58-3z" class="st0"/><path d="M203.12 56.16c-.41 1.54-1.38 2.47-2.99 2.68.49-1.46 1.48-2.36 2.99-2.68zM336.37 280.9c.31-1.54 1.31-2.35 2.82-2.59-.19 1.69-1.1 2.57-2.82 2.59zM57.83 281.27c1.48.21 2.7.76 3.06 2.4-1.65.01-2.64-.83-3.06-2.4zM197.24 58.72c-1.56-.24-2.5-1.17-2.91-2.66.97.89 1.94 1.78 2.91 2.66zM324.16 91.03l-3.07 2.68c.55-1.44 1.57-2.34 3.07-2.68zM61.02 283.78c3.37 1.82 1.84 2.83-.61 3.69.21-1.23.41-2.46.61-3.69z" class="st0"/><path d="M60.57 287.3c-.33 1.64-1.02 3.02-2.68 3.69.15-1.77 1.02-3.02 2.68-3.69zM336.91 290.21c-1.53-.4-2.41-1.42-2.81-2.91 1.51.42 2.45 1.39 2.81 2.91zM167.49 59.04c-1.62-.33-2.81-1.17-3.33-2.8 1.68.26 2.8 1.18 3.33 2.8zM149.14 55.99c-.57 1.33-1.51 2.2-3.02 2.32 1.01-.78 2.02-1.55 3.02-2.32zM46.48 295.9l-2.74-3.31c1.55.58 2.45 1.69 2.74 3.31zM97.84 77.58c.82-.45 1.67-.52 2.55-.22-.72 1.61-1.57 1.69-2.55.22zM34.42 201.46c-.6 1.72-1.7 2.97-3.41 3.65.3-1.99 1.42-3.22 3.41-3.65zM355.95 295.18c-.1 1.61-1.04 2.33-2.57 2.44.22-1.49 1.15-2.23 2.57-2.44zM78.7 94.34c-1.56-.59-2.24-1.88-2.64-3.38 1.53.62 2.4 1.76 2.64 3.38zM44.04 300.46l2.46-3.27c-.23 1.53-1.03 2.64-2.46 3.27zM76.26 104.19c.32-1.47.97-2.68 2.47-3.25-.23 1.53-1.04 2.63-2.47 3.25zM57.86 302.23c1.63.62 2.3 1.93 2.53 3.55-1.55-.68-2.38-1.88-2.53-3.55zM315.43 305.74c.46-1.01.91-2.01 1.37-3.02l2.12 2.48-3.49.54zM334.31 305.77c.32-1.47 1.17-2.43 2.64-2.8-.88.93-1.76 1.86-2.64 2.8z" class="st0"/><path d="M60.34 305.71c1.51.23 2.6.95 2.94 2.54-1.51-.25-2.47-1.11-2.94-2.54zM253.66 61.52c-1.46-.44-2.29-1.44-2.57-2.92.86.97 1.72 1.94 2.57 2.92zM313.22 308.6c.01-1.54.74-2.52 2.25-2.89-.76.96-1.51 1.93-2.25 2.89zM33.44 192.77c1.63.21 2.94.87 3.54 2.52-1.67-.14-2.86-.96-3.54-2.52zM360.93 192.66c.31-1.57 1.34-2.39 2.84-2.7-.38 1.5-1.32 2.41-2.84 2.7zM321.06 101.59c1.37.37 2.41 1.09 2.75 2.56-.91-.85-1.83-1.7-2.75-2.56z" class="st0"/><path d="M30.88 189.62c1.56.51 2.36 1.65 2.64 3.22-1.51-.56-2.38-1.63-2.64-3.22zM310.52 311.25c.24-1.37 1.01-2.17 2.42-2.31-.81.77-1.61 1.54-2.42 2.31zM86.4 88.23c.09 1.45-.74 2.23-1.97 2.72.65-.91 1.31-1.81 1.97-2.72zM262.78 58.94c-.51 1.62-1.63 2.56-3.26 2.94.44-1.7 1.54-2.66 3.26-2.94zM307.19 313.63c.38-1.57 1.48-2.14 2.98-2.14-.55 1.32-1.54 2.04-2.98 2.14zM363.74 177.4c-1.6-.37-2.73-1.29-3.23-2.89 1.68.3 2.77 1.24 3.23 2.89zM221.56 55.77c-1.71.04-3.09-.49-3.82-2.16 1.64.06 2.92.77 3.82 2.16zM33.71 174.42c-.37 1.58-1.19 2.78-2.8 3.31.27-1.67 1.19-2.79 2.8-3.31zM307.17 317.22c-.81-.05-1.6-.22-2.37-.49-.83-.62-1.11-1.25-.85-1.89.26-.64.53-.97.8-.97.78-.3 1.59-.38 2.42-.25.01 1.2 0 2.4 0 3.6z" class="st0"/><path d="M309.83 320.7c-1.65-.7-2.48-2.03-2.87-3.7 1.79.59 2.7 1.86 2.87 3.7zM68.79 319.58l-3.3 2.31c1.11-.77 2.2-1.54 3.3-2.31zM49.37 173.75c-1.6.17-2.71-.5-3.32-1.99 1.11.67 2.22 1.33 3.32 1.99zM76.05 322.76c-1.23-1-2.45-2-3.68-3 1.85.23 3.1 1.21 3.68 3zM344.94 172.23c-1.59-.51-2.44-1.65-2.74-3.25 1.54.55 2.45 1.64 2.74 3.25zM69.32 88.54c-.79 1.51-2.14 1.92-3.72 1.86.91-1.27 2.17-1.86 3.72-1.86zM310.07 88.52c-1.57-.35-2.58-1.31-3.05-2.84 1.56.37 2.58 1.31 3.05 2.84zM54.97 168.9c-.11 1.69-.99 2.79-2.59 3.32.25-1.58 1.11-2.69 2.59-3.32zM331.68 325.02c-.87-.98-1.74-1.97-2.61-2.95.87.98 1.74 1.97 2.61 2.95zM76.68 327.4c-.33-.87-.34-1.75-.03-2.63.32.62.71 1.22.91 1.88.05.15-.57.5-.88.75z" class="st0"/><path d="M54.96 165.92c2.69 1.07 2.59 2.09-.05 3.07.01-1.02.03-2.05.05-3.07zM329.37 330.12c.78-.95 1.56-1.91 2.33-2.86-.78.96-1.55 1.91-2.33 2.86zM65.51 330.5c.97.72 1.95 1.44 2.92 2.16-.97-.72-1.95-1.44-2.92-2.16zM72.8 332.46c.57-1.56 1.76-2.41 3.28-2.9-.5 1.64-1.59 2.61-3.28 2.9zM278.03 61.14c-1.49-.22-2.45-1.08-3.01-2.45 1.01.81 2.01 1.63 3.01 2.45zM304.82 84.87c-1.56.21-2.79-.27-3.52-1.74 1.17.57 2.35 1.15 3.52 1.74zM108.47 335.39c.31-.93.47-2.2 1.85-1.74.42.14.51 1.24.76 1.9-.87-.02-1.74-.07-2.61-.16zM96.12 61.64c-.66 1.59-2.01 2.22-3.57 2.57.69-1.56 1.89-2.4 3.57-2.57zM288.76 332.95c1.34.33 2.14 1.17 2.39 2.53-.8-.85-1.6-1.69-2.39-2.53zM307.13 335.23c.32-1.63 1.1-2.9 2.72-3.53-.17 1.74-1.05 2.94-2.72 3.53zM105.5 337.84c.35-1.57 1.38-2.31 2.94-2.42-.51 1.38-1.48 2.2-2.94 2.42zM179.3 53.52c-.64 1.55-1.84 2.15-3.46 2.02 1.15-.67 2.31-1.34 3.46-2.02zM291.48 335.71c1.54.05 2.74.62 3.32 2.15l-3.32-2.15zM72.35 106.59c.76-1.64 2.22-2.13 3.85-2.34-.83 1.52-2.14 2.25-3.85 2.34zM33.56 160.35c1.51.32 2.55 1.13 2.87 2.7-1.55-.27-2.5-1.18-2.87-2.7zM137.95 340.68c1.08-2.65 2.06-2.6 2.94.11-.98-.03-1.96-.07-2.94-.11zM256.45 340.8c.86-2.63 1.83-2.7 2.92-.13-.97.04-1.95.09-2.92.13zM205.71 41.55c.79 1.17 1.59 2.34 2.38 3.51-1.47-.72-2.24-1.9-2.38-3.51zM348.07 157.78c1.43.44 2.25 1.43 2.62 2.84-.88-.95-1.75-1.89-2.62-2.84zM103.32 63.47c-1.43-.12-2.59-.67-3.26-2.02 1.09.67 2.17 1.34 3.26 2.02zM140.98 340.87c1.58.08 2.5.93 2.83 2.45-1.43-.25-2.38-1.06-2.83-2.45zM189.4 45.12c.77-1.08 1.54-2.17 2.31-3.25-.77 1.08-1.54 2.16-2.31 3.25zM151.64 42.4l2.9 2.6c-.97-.87-1.94-1.73-2.9-2.6zM116.75 61.34c-.21 1.65-.75 3.1-2.39 3.86.09-1.73.85-3.04 2.39-3.86zM253.5 343.32c.33-1.53 1.25-2.38 2.83-2.44-.44 1.39-1.39 2.2-2.83 2.44zM350.96 147.44c-.96 1.02-1.92 2.03-2.88 3.04.4-1.54 1.35-2.56 2.88-3.04zM280.52 64.4c-1.43-.58-2.2-1.66-2.4-3.17.8 1.06 1.6 2.11 2.4 3.17zM105.94 66.51l-2.15-2.69 2.15 2.69zM285.8 85.91c-1.56-.4-2.39-1.45-2.71-2.98 1.47.47 2.38 1.46 2.71 2.98zM51.88 147.21c-.35.76-.71 1.52-1.06 2.29-.41-.76-.82-1.52-1.23-2.27.77.03 1.53.03 2.29-.02zM304.79 66.92c-.91-.97-1.83-1.93-2.74-2.9.91.96 1.83 1.93 2.74 2.9zM342.4 147.52c-1.28-.52-2.08-1.35-1.93-2.84.65.95 1.29 1.9 1.93 2.84zM135.35 349.17c-1.45-.43-2.31-1.43-2.71-2.85.9.95 1.8 1.9 2.71 2.85zM264.8 346.35c-.98.88-1.95 1.76-2.93 2.64.98-.88 1.96-1.76 2.93-2.64zM49.48 147.11c-1.47-.22-2.45-1.04-3.02-2.39 1.01.79 2.02 1.59 3.02 2.39zM277.59 350.17c-1.66-.66-2.7-1.9-3.26-3.56 1.88.46 2.95 1.66 3.26 3.56zM93.02 83.01c-.59 1.44-1.66 2.13-3.22 2.03 1.07-.68 2.14-1.36 3.22-2.03zM36.88 144.96c-.52 1.61-1.67 2.52-3.28 2.91.46-1.68 1.57-2.63 3.28-2.91zM57.89 139.47c-.36 1.54-1.27 2.54-2.83 2.91.35-1.54 1.3-2.51 2.83-2.91zM208.28 34.49l-2.55 3.63c.16-1.69.99-2.92 2.55-3.63zM36.22 127.81c.88 1.08 1.77 2.15 2.65 3.23-1.5-.57-2.37-1.65-2.65-3.23zM46.84 122.74c-.9-.78-1.8-1.55-2.69-2.32.89.77 1.79 1.54 2.69 2.32zM191.68 37.8c-.83-1.12-1.66-2.25-2.49-3.37 1.44.67 2.26 1.8 2.49 3.37z" class="st0"/><path d="M283.22 83.05c-1.55-.23-2.7-.96-3.12-2.57 1.57.22 2.6 1.09 3.12 2.57zM39.18 120.62c-.98 1.1-1.95 2.2-2.93 3.31.32-1.69 1.29-2.8 2.93-3.31zM339.51 121.3c-1.57-.67-2.16-1.99-2.33-3.57 1.42.77 2.19 1.97 2.33 3.57zM302.33 74.67c.83-.92 1.65-1.85 2.48-2.77-.83.92-1.66 1.85-2.48 2.77zM132.86 362.31c.3-1.4 1.11-2.33 2.52-2.69-.85.89-1.69 1.79-2.52 2.69zM143.9 358.69c1.58.7 2.12 2.05 2.24 3.65-1.43-.8-2.15-2.03-2.24-3.65zM159.8 36.3c-.99-.61-1.99-1.22-2.98-1.84.99.62 1.99 1.23 2.98 1.84zM337.16 117.69c-1.46-.29-2.36-1.2-2.82-2.58l2.82 2.58zM154.85 34.61c-1.06.89-2.13 1.77-3.19 2.66.59-1.46 1.65-2.35 3.19-2.66zM261.87 359.83c1.37.29 2.25 1.1 2.61 2.45-.87-.82-1.74-1.63-2.61-2.45zM274.75 362c.34-1.63 1.27-2.75 2.85-3.31-.23 1.72-1.14 2.86-2.85 3.31zM60.31 115.12c-.32 1.49-1.11 2.55-2.62 2.99.33-1.48 1.21-2.47 2.62-2.99zM324.73 112.74c-.75 1.55-2.05 2.03-3.67 1.84 1.22-.62 2.44-1.23 3.67-1.84zM146.26 362.49c1.44.22 2.3 1.06 2.62 2.47-.87-.82-1.75-1.64-2.62-2.47zM164.47 364.64c.32-1.65 1.28-2.71 2.89-3.19-.26 1.7-1.19 2.79-2.89 3.19zM173.17 362.41c1.42.3 2.23 1.17 2.47 2.59l-2.47-2.59zM194.1 364.72c.31-1.67 1.14-2.94 2.79-3.56-.17 1.78-1.05 3.01-2.79 3.56zM221.56 364.98c.25-1.45 1.08-2.36 2.54-2.67-.85.89-1.69 1.78-2.54 2.67zM248.1 364.82c.33-1.53 1.3-2.4 2.8-2.7-.41 1.44-1.33 2.35-2.8 2.7zM114.45 80.41c-.4 1.58-1.46 2.42-3.02 2.7.47-1.5 1.47-2.41 3.02-2.7zM318.33 115.19c-2.53.91-2.61-1.09-3.08-2.61 1.03.87 2.05 1.74 3.08 2.61z" class="st0"/><path d="M63.61 112.65c-.55 1.6-1.77 2.32-3.37 2.54.66-1.47 1.78-2.32 3.37-2.54zM175.88 365.18c1.48.05 2.64.56 3.05 2.14-1.49-.05-2.49-.78-3.05-2.14zM315.41 112.76c-1.56-.36-2.47-1.36-2.83-2.89 1.51.41 2.45 1.37 2.83 2.89zM84.72 109.86c-.34 1.55-1.25 2.54-2.81 2.9.37-1.52 1.31-2.48 2.81-2.9zM218 367.39c.58-1.6 1.83-2.2 3.42-2.29-.71 1.41-1.85 2.16-3.42 2.29zM361.27 203.03c-1.42.1-2.41-.53-3.01-1.8 1 .6 2 1.2 3.01 1.8zM254.43 63.89c1.42.01 2.85.01 4.27.02-.68 4.45-1.09 8.89 1.73 12.83 2.11 2.95-.52 3.84-2.17 4.89-.96.61-2.66 1-3.58.56-2.13-1.03-3.29-2.77-1.78-5.32 2.4-4.07 1.97-8.53 1.53-12.98zM317.03 292.05c-2.05-4.23-6.29-6.63-2.92-10.36 4.32-4.79 7.46 1.35 11.62 1.32-.74 5.28-6.56 4.29-8.7 9.04zM322.82 137.77c-.54.61-.91 1.39-1.5 1.64-2.13.87-3.93 4.03-6.6 1.43-.47-.45.1-2.51.74-3.46 2.54-3.77 4.93-1.53 7.36.39zM74.86 285.15c2.29-1.5 3.63-2.71 5.2-3.31 1.13-.43 3.1.48 2.81 1.54-.4 1.46-1.81 2.88-3.15 3.74-.56.35-2.08-.79-4.86-1.97zM229.69 78.8c-.2 1.31-.61 2.62-2.04 2.89-1.63.31-2.38-.77-2.14-2.26.23-1.4 1.24-2.38 2.7-2.22.55.05 1 1.03 1.48 1.59zM172.17 80.41c-.86.6-1.49 1.4-2.1 1.39-2.31-.06-2.35-1.83-2.08-3.48.18-1.12 1.11-1.42 1.94-.65.85.78 1.49 1.8 2.24 2.74zM111.59 317.26c-1.8 3.47-3.23 1.51-4.04-.51-1.33-3.31 1.92-2.76 3.46-3.62 1.4 1.21 1.59 2.59.58 4.13zM200.13 79.87c.41 1.05.12 1.98-.97 2.16-1.58.26-2.33-.66-1.86-2.18.24-.78.93-1.41 1.42-2.12.47.71.94 1.42 1.41 2.14zM304.76 313.86c.01.95.03 1.91.04 2.86-2.21.31-3.9-.38-4.82-2.53 1.6-.1 3.19-.22 4.78-.33z" class="st0"/><path d="M111.59 317.26c-.19-1.38-.39-2.75-.58-4.13.62-1.18 1.86-1.77 2.54-.65 1.27 2.14-.08 3.68-1.96 4.78zM316.9 255.37c.27.29.54.59.81.88-.32.24-.66.68-.95.65-.29-.03-.55-.53-.82-.82.32-.23.64-.47.96-.71zM140.37 312.78c-.28.21-.59.61-.84.58-.26-.03-.47-.48-.7-.75.28-.21.59-.61.84-.58.26.03.47.48.7.75zM293.83 316.44c.3-.76.34-1.53.11-2.31.98-.06 1.97-.12 2.95-.17-.21 1.82-1.37 2.48-3.06 2.48zM80.63 138.7c-.31-.15-.61-.29-.92-.44l.93-1.29c.3.29.61.58.91.87-.3.29-.61.57-.92.86zM287.96 107.69c0 .32.12.72-.02.92-.57.78-1.23.6-1.7-.53-.06-.14.53-.67.89-.82.2-.07.57.29.83.43z" class="st0"/></svg>